<svg xmlns="http://www.w3.org/2000/svg" viewBox="0 0 64 64" width="64" height="64">
  <path fill="#666" d="M58 59H6c-1.1 0-2-.9-2-2V6c0-1.1.9-2 2-2h52c1.1 0 2 .9 2 2v51c0 1.1-.9 2-2 2z" />
  <path fill="#fff" d="M10 10h44v43H10z"/>
  <path fill="#888" d="M10 18h44v2H10zM10 30h44v2H10zM10 42h44v2H10z"/>
  <path fill="#1d83d4" d="M23 23h-1c-1.1 0-2-.9-2-2v-5c0-1.1.9-2 2-2h1c1.1 0 2 .9 2 2v5c0 1.1-.9 2-2 2zM17 23h-1c-1.1 0-2-.9-2-2v-5c0-1.1.9-2 2-2h1c1.1 0 2 .9 2 2v5c0 1.1-.9 2-2 2zM29 23h-1c-1.1 0-2-.9-2-2v-5c0-1.1.9-2 2-2h1c1.1 0 2 .9 2 2v5c0 1.1-.9 2-2 2zM23 36h-1c-1.1 0-2-.9-2-2v-5c0-1.1.9-2 2-2h1c1.1 0 2 .9 2 2v5c0 1.1-.9 2-2 2zM17 36h-1c-1.1 0-2-.9-2-2v-5c0-1.1.9-2 2-2h1c1.1 0 2 .9 2 2v5c0 1.1-.9 2-2 2zM29 36h-1c-1.1 0-2-.9-2-2v-5c0-1.1.9-2 2-2h1c1.1 0 2 .9 2 2v5c0 1.1-.9 2-2 2zM43 47h-1c-1.1 0-2-.9-2-2v-5c0-1.1.9-2 2-2h1c1.1 0 2 .9 2 2v5c0 1.1-.9 2-2 2zM49 47h-1c-1.1 0-2-.9-2-2v-5c0-1.1.9-2 2-2h1c1.1 0 2 .9 2 2v5c0 1.1-.9 2-2 2zM36 23h-1c-1.1 0-2-.9-2-2v-5c0-1.1.9-2 2-2h1c1.1 0 2 .9 2 2v5c0 1.1-.9 2-2 2z"/>
</svg>
